<svg width="17" height="17" viewBox="0 0 17 17" fill="none" xmlns="http://www.w3.org/2000/svg">
<path fill-rule="evenodd" clip-rule="evenodd" d="M2.77833 6.73273V0.571934C2.77833 0.364336 2.6137 0.196045 2.41061 0.196045C2.20753 0.196045 2.0429 0.364336 2.0429 0.571934V6.73273C0.914501 6.73273 -0.000244141 7.66781 -0.000244141 8.82128C-0.000244141 9.97475 0.914501 10.9098 2.0429 10.9098V16.5485C2.0429 16.7561 2.20753 16.9244 2.41061 16.9244C2.6137 16.9244 2.77833 16.7561 2.77833 16.5485V10.9098C3.90673 10.9098 4.82147 9.97475 4.82147 8.82128C4.82147 7.66781 3.90673 6.73273 2.77833 6.73273ZM14.5874 1.90851V0.571934C14.5874 0.364336 14.4228 0.196045 14.2197 0.196045C14.0166 0.196045 13.852 0.364336 13.852 0.571934V1.90851C12.7236 1.90851 11.8088 2.84358 11.8088 3.99706C11.8088 5.15053 12.7236 6.0856 13.852 6.0856V16.5274C13.852 16.735 14.0166 16.9033 14.2197 16.9033C14.4228 16.9033 14.5874 16.735 14.5874 16.5274V6.08598C15.7158 6.08598 16.6306 5.15091 16.6306 3.99743C16.6306 2.84396 15.7158 1.90889 14.5874 1.90889V1.90851ZM8.68288 0.593089V11.0349V11.0352C9.75317 11.1118 10.5831 12.0217 10.5831 13.1185C10.5831 14.2153 9.75317 15.1252 8.68288 15.2018V16.538C8.68288 16.7456 8.51824 16.9138 8.31516 16.9138C8.11207 16.9138 7.94744 16.7456 7.94744 16.538V15.212C6.81905 15.212 5.9043 14.2769 5.9043 13.1234C5.9043 11.9699 6.81905 11.0349 7.94744 11.0349V0.593089C7.94744 0.385492 8.11207 0.2172 8.31516 0.2172C8.51824 0.2172 8.68288 0.385492 8.68288 0.593089ZM7.08839 13.643C7.29391 14.1502 7.77809 14.481 8.31516 14.481C9.04851 14.481 9.64301 13.8732 9.64301 13.1236C9.64301 12.5746 9.31949 12.0797 8.8233 11.8696C8.32712 11.6595 7.75599 11.7756 7.37623 12.1638C6.99647 12.552 6.88286 13.1358 7.08839 13.643ZM12.8919 3.98667C12.8919 4.73631 13.4864 5.34402 14.2197 5.34402C14.9531 5.34402 15.5475 4.73631 15.5475 3.98667C15.5475 3.23702 14.9531 2.62931 14.2197 2.62931C13.4864 2.62931 12.8919 3.23702 12.8919 3.98667ZM1.08314 8.81064C1.083 9.56024 1.67731 10.168 2.41061 10.1682C2.76285 10.1683 3.10068 10.0254 3.34978 9.77082C3.59888 9.51625 3.73883 9.17095 3.73883 8.81089C3.73883 8.06129 3.14441 7.4536 2.41111 7.45353C1.67781 7.45346 1.08327 8.06104 1.08314 8.81064Z" fill="white"/>
</svg>
